<svg xmlns="http://www.w3.org/2000/svg" viewBox="0 0 24 24" fill="#007682" width="18px" height="18px">
 <path d="M0 0h24v24H0z" fill="none"/>
 <path d="M12 2C6.47 2 2 6.47 2 12s4.47 10 10 10 10-4.47 10-10S17.53 2 12 2zm5 13.59L15.59 17 12 13.41 8.41 17 7 15.59 10.59 12 7 8.41 8.41 7 12 10.59 15.59 7 17 8.41 13.41 12 17 15.59z"/>
 <g fill="#fff" stroke-width=".024357">
  <path transform="scale(1.3333)" d="m5.7823 12.21-.51113-.51157 1.3334-1.3336c.73337-.73347 1.3334-1.3445 1.3334-1.3578 0-.013306-.60287-.62714-1.3397-1.3641l-1.3397-1.3399 1.0476-1.0468 2.7035 2.7032 2.6916-2.6913 1.035 1.035-2.6913 2.6916 2.6914 2.6918-1.0476 1.0468-2.6915-2.6912-1.3395 1.3396c-.73672.73681-1.3451 1.3396-1.352 1.3396-.00686 0-.24249-.23021-.52361-.51157z"/>
  <path transform="scale(1.3333)" d="m5.7824 12.21-.51112-.51156.99859-1.0047c.54923-.55258 1.1519-1.1609 1.3393-1.3519l.34069-.34721-2.6912-2.6915 1.0476-1.0468 2.7035 2.7032 2.6916-2.6913 1.035 1.035-2.6913 2.6916 2.6914 2.6918-1.0476 1.0468-2.6915-2.6912-1.3395 1.3396c-.73672.73681-1.3451 1.3396-1.352 1.3396-.00686 0-.24248-.2302-.5236-.51156z"/>
  <path transform="scale(1.3333)" d="m5.7883 12.216c-.27786-.27809-.5052-.51525-.5052-.52701 0-.01176.59462-.61798 1.3214-1.3471.72676-.72917 1.3264-1.331 1.3325-1.3373.0061173-.0063419-.59401-.61674-1.3336-1.3564l-1.3447-1.3449 1.0476-1.0468 2.7042 2.7034 2.6763-2.7037 1.0498 1.0471-2.6914 2.6918 2.6914 2.6918-1.0476 1.0468-2.6915-2.6912-1.3395 1.3396c-.73672.73681-1.3451 1.3396-1.352 1.3396-.00686 0-.23982-.22753-.51767-.50562z"/>
 </g>
</svg>
