<svg xmlns="http://www.w3.org/2000/svg"
     width="250px"
     height="80px"
     viewBox="110 20 453.88 127.96" xml:space="preserve">
    <g transform="matrix(1.33333 0 0 -1.33333 0 127.96)">
        <g fill-opacity="1" fill-rule="nonzero" stroke="none" transform="scale(.1)">
            <path fill="#00A1B3" d="M1009.24 579.18V343.098h-68.045V579.18h-74.777v53.769h217.602V579.18h-74.78"></path>
            <path fill="#00A1B3"
                  d="M1253.26 579.602c-48.31 0-84.85-34.864-84.85-90.325 0-55.449 36.54-90.73 84.85-90.73 48.31 0 84.86 35.281 84.86 90.73 0 55.032-36.55 90.325-84.86 90.325zm0-241.543c-86.11 0-153.75 55.867-153.75 149.539 0 93.683 67.64 149.972 153.75 149.972 86.12 0 153.75-56.289 153.75-149.972 0-93.672-67.63-149.539-153.75-149.539"></path>
            <path fill="#00A1B3" d="M1466.17 343.098v289.851h67.63V399.387h100.4v-56.289h-168.03"></path>
            <path fill="#00A1B3"
                  d="M1685.83 343.098v289.851h67.64V399.387h100.39v-56.289h-168.03"></path>
            <path fill="#00A1B3"
                  d="M1905.49 343.098v289.851h187.77v-54.187h-120.14v-59.231h96.41v-54.187h-96.41v-67.219h123.92v-55.027h-191.55"></path>
            <path fill="#00A1B3" d="M2278.05 579.18V343.098H2210V579.18h-74.77v53.769h217.59V579.18h-74.77"></path>
            <path fill="#00A1B3"
                  d="M2487.2 558.594l-36.12-104.18h72.25zm72.26-215.496l-20.59 58.386h-103.34l-20.58-58.386h-70.57l109.22 290.273h70.57l109.22-290.273h-73.93"></path>
            <path fill="#00A1B3" d="M2763.57 579.18V343.098h-68.05V579.18h-74.78v53.769h217.6V579.18h-74.77"></path>
            <path fill="#00A1B3"
                  d="M2887.44 343.098v289.851h187.78v-54.187h-120.15v-59.231h96.42v-54.187h-96.42v-67.219H3079v-55.027h-191.56"></path>
            <path fill="#00A1B3"
                  d="M3334.36 343.098l-127.29 196.59s1.26-34.864 1.26-65.528V343.098h-66.36v289.851h72.67l124.34-194.91s-1.26 32.762-1.26 63.426v131.484h66.37V343.098h-69.73"></path>
            <path fill="#00A1B3"
                  d="M962.973 54.219l-67.657 93.488s.34-15.801.34-31.105V54.219H879.34v117.285h17.332l66.465-92.129s-.164 14.453-.164 29.922v62.207h16.14V54.219h-16.14"></path>
            <path fill="#00A1B3"
                  d="M1064.12 158.926c-23.97 0-43.69-17.168-43.69-45.887 0-28.566 19.89-45.898 43.69-45.898 23.97 0 43.68 17.332 43.68 45.898 0 28.719-19.71 45.887-43.68 45.887zm0-106.746c-32.98 0-60.51 22.949-60.51 60.515 0 37.571 27.53 60.508 60.51 60.508 32.97 0 60.51-22.937 60.51-60.508 0-37.566-27.54-60.515-60.51-60.515"></path>
            <path fill="#00A1B3"
                  d="M1197.23 153.828c-5.26 3.906-11.55 4.25-19.72 4.25h-12.07v-39.777h12.07c8.17 0 14.46.344 19.72 4.082 5.27 3.906 7.48 8.672 7.48 15.812 0 6.961-2.21 11.895-7.48 15.633zm11.39-99.61l-30.6 50.489h-12.58V54.219h-16.48v117.285h33.14c20.91 0 39.61-9.688 39.61-32.977 0-20.566-14.28-29.746-26.69-32.121l33.49-52.187h-19.89"></path>
            <path fill="#00A1B3"
                  d="M1357.87 54.055h-16.15l-28.21 94.843-28.06-94.843h-16.14l-33.83 117.449h17.33l25.34-92.469 27.03 92.469H1322l27.03-92.469 25.33 92.469h17.33l-33.82-117.45"></path>
            <path fill="#00A1B3"
                  d="M1413.99 54.219v117.285h68.67v-13.77h-52.19v-35.007h49.3v-13.946h-49.3V68.156h53.55V54.22h-70.03"></path>
            <path fill="#00A1B3"
                  d="M1562.55 52.18c-33.49 0-59.83 24.14-59.83 60.683s26.34 60.34 59.66 60.34c30.09 0 43-15.801 47.43-20.39l-11.22-10.372c-6.98 8.157-17.86 16.661-36.21 16.661-24.14 0-42.66-17.344-42.66-46.239 0-28.898 19.21-46.23 43.68-46.23 24.31 0 32.98 10.703 32.98 10.703v26.004h-31.62v13.43h47.6V71.223c-2.21-2.22-16.49-19.043-49.81-19.043"></path>
            <path fill="#00A1B3" d="M1639.74 54.219v117.285h16.48V54.219h-16.48"></path>
            <path fill="#00A1B3"
                  d="M1732.38 151.281l-20.56-52.695h41.13zm37.23-97.062l-12.07 30.597h-50.31l-12.07-30.597h-17.35l47.78 117.629h14.44l47.94-117.63h-18.36"></path>
            <path fill="#00A1B3"
                  d="M1893.37 54.219l-67.65 93.488s.34-15.801.34-31.105V54.219h-16.32v117.285h17.33l66.47-92.129s-.17 14.453-.17 29.922v62.207h16.14V54.219h-16.14"></path>
            <path fill="#00A1B3"
                  d="M2039.56 52.18c-34.17 0-59.83 23.964-59.83 60.515 0 36.543 26.35 60.508 60 60.508 21.93 0 35.19-9.18 41.65-15.469l-6.97-13.25c-4.59 5.782-17.68 14.278-34 14.278-25.32 0-43.68-18.196-43.68-45.723 0-27.539 18.53-45.734 43.68-45.734 15.47 0 27.37 5.949 35.02 14.277l7.14-12.059c-7.31-8.164-20.74-17.343-43.01-17.343"></path>
            <path fill="#00A1B3"
                  d="M2183.56 66.457c-7.99-9.18-19.72-14.277-35.19-14.277-15.64 0-27.37 5.097-35.18 14.277-8.17 9.52-9.53 21.082-9.53 35.703v69.344h16.66v-67.82c0-9.856.17-19.375 5.44-26.348 4.76-6.457 12.41-10.371 22.61-10.371s17.68 3.914 22.61 10.37c5.26 6.974 5.44 16.661 5.44 26.349v67.82h16.48V102.16c0-14.62-1.35-26.183-9.34-35.703"></path>
            <path fill="#00A1B3"
                  d="M2252.91 52.18c-20.56 0-32.29 13.261-37.9 19.714l9.69 11.055c5.95-7.988 17-16.836 29.75-16.836s22.94 7.317 22.94 19.727c0 12.238-13.08 16.992-19.04 19.375-6.11 2.383-14.28 5.605-18.69 7.824-12.07 5.606-19.38 14.949-19.38 28.719 0 20.91 19.04 31.281 37.74 31.281 19.2 0 30.42-11.73 33.65-15.129l-8.67-11.219c-5.78 6.122-14.28 12.579-25.83 12.579-11.56 0-20.4-5.442-20.4-16.321 0-10.879 7.99-14.961 15.13-17.851l21.59-9.004c12.06-5.614 20.39-15.301 20.39-29.238 0-22.774-20.39-34.676-40.97-34.676"></path>
            <path fill="#00A1B3"
                  d="M2361.03 157.734V54.219h-16.49v103.515h-33.14v13.77h82.61v-13.77h-32.98"></path>
            <path fill="#00A1B3"
                  d="M2459.63 158.926c-23.97 0-43.69-17.168-43.69-45.887 0-28.566 19.89-45.898 43.69-45.898 23.97 0 43.68 17.332 43.68 45.898 0 28.719-19.71 45.887-43.68 45.887zm0-106.746c-32.98 0-60.52 22.949-60.52 60.515 0 37.571 27.54 60.508 60.52 60.508 32.97 0 60.51-22.937 60.51-60.508 0-37.566-27.54-60.515-60.51-60.515"></path>
            <path fill="#00A1B3"
                  d="M2649.35 54.219l-7.66 92.636h-.51l-35.87-93.652h-9.34l-35.87 93.652h-.51l-7.48-92.636h-16.32l10.54 117.285h20.4l33.83-90.594h.34l33.83 90.594h20.22l10.72-117.285h-16.32"></path>
            <path fill="#00A1B3"
                  d="M2722.96 52.18c-20.57 0-32.29 13.261-37.9 19.714l9.69 11.055c5.95-7.988 17-16.836 29.74-16.836 12.76 0 22.95 7.317 22.95 19.727 0 12.238-13.08 16.992-19.04 19.375-6.11 2.383-14.28 5.605-18.69 7.824-12.07 5.606-19.39 14.949-19.39 28.719 0 20.91 19.05 31.281 37.75 31.281 19.21 0 30.42-11.73 33.65-15.129l-8.67-11.219c-5.77 6.122-14.28 12.579-25.83 12.579-11.56 0-20.4-5.442-20.4-16.321 0-10.879 7.99-14.961 15.13-17.851l21.59-9.004c12.06-5.614 20.39-15.301 20.39-29.238 0-22.774-20.39-34.676-40.97-34.676"></path></g></g></svg>